<svg width="160" height="79" viewBox="0 0 160 79" fill="none" xmlns="http://www.w3.org/2000/svg">
<g clip-path="url(#clip0_0_890)">
<mask id="mask0_0_890" style="mask-type:luminance" maskUnits="userSpaceOnUse" x="17" y="-9" width="126" height="95">
<path d="M17.4385 -8.05457H142.825V85.9858H17.4385V-8.05457Z" fill="white"/>
</mask>
<g mask="url(#mask0_0_890)">
<path d="M83.8452 3.90754H86.0837C90.0081 4.0756 93.8605 4.98405 97.5815 6.20461C100.556 7.21359 103.342 8.77107 105.758 10.7809C108.335 12.9174 110.478 15.5476 112.189 18.4182C113.961 21.4021 115.291 24.6407 116.213 27.984C116.651 29.581 116.996 31.2063 117.196 32.8514C117.318 33.9159 117.341 34.9889 117.386 36.0589V38.5542C117.282 41.7068 117.145 44.8877 116.397 47.965C116.095 49.4612 115.739 50.9513 115.205 52.3831C114.08 55.4222 112.316 58.1913 110.239 60.6675C107.731 63.6654 104.784 66.2635 101.683 68.6301C100.28 69.703 98.8292 70.7411 97.218 71.48C96.2072 71.9279 95.126 72.2778 94.0133 72.3004C93.7729 72.3181 93.4593 72.2121 93.4353 71.9347C93.512 71.5074 93.7831 71.1048 94.1646 70.8897C96.9989 69.2135 99.7317 67.3371 102.161 65.1075C104.685 62.8054 106.862 60.1128 108.511 57.1176C111.047 52.5564 112.296 47.3638 112.579 42.1759C112.841 38.0146 112.501 33.8128 111.533 29.7563C110.793 26.682 109.662 23.6793 107.976 20.995C107.04 19.5083 105.934 18.1251 104.655 16.9209C103.417 15.7568 102.011 14.7927 100.612 13.8384C97.9514 12.0929 95.1617 10.494 92.1527 9.43119C91.0147 9.0197 89.8204 8.80401 88.6337 8.59242C87.7525 8.44897 86.8643 8.31195 85.9693 8.3185C85.6722 8.34587 85.2928 8.33118 85.0976 8.60062C85.0065 8.97765 85.2106 9.37028 85.5475 9.54905C86.2295 9.93078 87.0375 9.96268 87.8011 10.0085C89.7041 10.024 91.5296 10.6748 93.2545 11.4235C95.9464 12.6463 98.5327 14.1298 100.842 15.9814C102.426 17.2479 103.874 18.6914 105.081 20.3239C105.84 21.3291 106.451 22.432 107.093 23.5122C107.972 25.0871 108.534 26.8173 108.962 28.563C109.952 32.7408 110.198 37.0559 110.196 41.3378C110.196 45.4834 109.182 49.6043 107.375 53.3281C106.065 56.0891 104.312 58.6077 102.482 61.0448C100.5 63.5915 98.0376 65.7376 95.3554 67.5179C89.2151 71.5738 81.9011 73.6234 74.5934 74.0281H72.3292C68.214 73.8644 64.1136 73.007 60.3299 71.3664C58.9132 70.7439 57.5115 70.0585 56.258 69.1436C54.0158 67.531 51.9851 65.6156 50.2804 63.4408C49.1074 61.9268 48.0864 60.2567 47.5632 58.4016C47.4016 57.7901 47.2503 57.1396 47.3899 56.5089C47.464 56.1371 47.7844 55.8186 48.174 55.8125C48.575 55.8618 48.8625 56.1837 49.1245 56.4616C49.8367 57.284 50.4392 58.1927 51.1032 59.0535C51.943 60.1793 52.878 61.229 53.8569 62.2356C56.0242 64.5365 58.514 66.5887 61.4064 67.9089C63.3259 68.8094 65.3271 69.5339 67.3748 70.0845C68.8594 70.4775 70.3735 70.7953 71.91 70.887C72.3949 70.9117 72.8886 70.9192 73.3663 70.8151C73.6145 70.7665 73.8055 70.4453 73.6302 70.2283C73.4774 70.0393 73.2139 70.031 72.9954 69.9763C70.6939 69.5572 68.3253 69.3032 66.1515 68.3835C64.2479 67.583 62.4593 66.5347 60.7401 65.3972C58.0018 63.5449 55.4244 61.4146 53.2988 58.872C52.4107 57.8285 51.714 56.6383 51.0877 55.4236C50.1554 53.5719 49.3556 51.6272 48.9885 49.5783C48.5531 46.5188 48.4835 43.4222 48.4528 40.3373C48.5257 37.9735 48.4226 35.5741 48.9711 33.2558C49.5518 30.5489 50.5251 27.9211 51.9012 25.5161C53.5152 22.6583 55.6955 20.1541 58.1408 17.9772C58.9742 17.2085 59.9055 16.5522 60.8696 15.9595C63.6699 14.2421 66.7404 13.0441 69.7681 11.7989C69.9981 11.7139 70.4036 11.5304 70.1523 11.2373C69.8328 11.0511 69.4422 11.1836 69.1032 11.2401C66.4529 11.7595 63.9274 12.8031 61.5681 14.1014C58.3754 15.8719 55.4993 18.2312 53.2012 21.0716C51.0976 23.6628 49.4816 26.6402 48.4089 29.7974C47.1616 33.4167 46.6046 37.2487 46.5361 41.068C46.5245 41.5596 46.5792 42.1157 46.2687 42.5341C46.0677 42.8032 45.6781 42.797 45.4059 42.6471C44.8071 42.3349 44.3907 41.7172 44.2702 41.0577C43.8446 38.6189 43.7175 36.1229 43.9661 33.6577C44.2983 30.3195 45.2552 27.0429 46.7973 24.0628C48.6472 20.4287 51.2675 17.2113 54.3352 14.5351C56.6836 12.4935 59.3367 10.8254 62.1207 9.44496C65.6102 7.72414 69.3086 6.44222 73.0913 5.5418C74.962 5.09082 76.863 4.78133 78.7595 4.46358C80.4432 4.18415 82.1402 3.98799 83.8452 3.90754Z" fill="#19191C"/>
<path d="M85.0988 17.746C85.3781 17.6727 85.6822 17.5845 85.9629 17.7012C86.3539 17.8392 86.575 18.2244 86.7127 18.5914C87.1763 19.8771 87.6385 21.1651 88.1966 22.4124C88.2438 22.534 88.3863 22.5504 88.4951 22.5867C90.7494 23.1164 93.0255 23.5639 95.247 24.2212C96.9266 24.7489 98.605 25.2994 100.211 26.0235C100.737 26.2728 101.362 26.5019 101.621 27.0688C101.89 27.8231 101.32 28.7506 100.504 28.7945C98.5818 28.8585 96.6672 29.042 94.7525 29.2108C89.9421 29.6545 85.135 30.1722 80.3684 30.9703C72.916 32.2803 65.536 33.9614 58.1433 35.5618C57.6633 35.6713 57.0295 35.4597 56.897 34.9393C56.783 34.5318 57.0805 34.1648 57.3757 33.9237C58.8089 32.7179 60.3509 31.6475 61.9095 30.6115C63.7248 29.4245 65.6065 28.3333 67.5694 27.4095C68.0176 27.1877 68.4688 26.9703 68.9023 26.721C69.0605 26.6388 69.1645 26.4899 69.2502 26.3385C70.0383 24.9488 70.6964 23.4899 71.4907 22.104C71.677 21.8225 71.8177 21.4691 72.1289 21.3047C74.7474 20.631 77.3396 19.8579 79.9509 19.1584C81.6646 18.6801 83.3759 18.1898 85.0988 17.746Z" fill="#FFFCFC"/>
<path d="M76.9711 33.1738C77.1766 33.1091 77.4303 33.0362 77.6202 33.182C77.8411 33.4268 77.6705 33.7665 77.5446 34.013C77.0652 34.883 76.5318 35.7239 75.9604 36.5347C75.6327 37.0353 74.8466 37.1784 74.4083 36.7449C74.0037 36.281 74.1252 35.5798 74.4265 35.0939C74.9551 34.1216 75.9566 33.532 76.9711 33.1738Z" fill="#FFFCFC"/>
<path d="M99.4047 33.9299C99.6431 33.7792 99.9402 33.6725 100.218 33.7867C100.483 33.8614 100.61 34.1484 100.629 34.4031C100.703 35.3453 100.117 36.2033 100.21 37.1476C100.281 37.6269 100.765 37.9245 101.218 37.9584C101.551 38.0203 101.957 37.9043 102.228 38.1556C102.42 38.4367 102.193 38.79 101.968 38.9763C101.467 39.3605 100.842 39.5734 100.215 39.6173C99.539 39.6618 98.7912 39.4974 98.3413 38.9534C97.4888 39.7357 96.4712 40.3807 95.3338 40.6389C94.6443 40.7916 93.8218 40.7629 93.287 40.2438C92.7947 39.7836 92.7502 39.0495 92.8269 38.4213C92.9891 37.3756 93.6492 36.4903 94.3895 35.7699C95.6953 34.4705 97.5709 33.7967 99.4047 33.9299Z" fill="#FFFCFC"/>
<path d="M85.8892 34.8285C87.2559 34.6604 88.6207 34.4679 89.9895 34.3179C90.6072 34.2906 91.3549 34.3967 91.7165 34.9627C92.0315 35.5122 91.7891 36.1843 91.4111 36.6352C90.4072 37.8332 89.3458 38.9816 88.3023 40.1443C89.3979 40.2087 90.4449 40.6551 91.5515 40.586C91.9425 40.5778 92.3164 40.4402 92.708 40.4436C92.9929 40.775 92.7703 41.2181 92.463 41.4386C91.4152 42.265 90.0073 42.4136 88.7172 42.3554C87.5024 42.339 86.2679 42.1466 85.0674 42.4184C84.8189 42.4677 84.521 42.5582 84.3012 42.3801C84.0088 42.1418 84.0498 41.7145 84.1307 41.3879C84.356 40.7195 84.8387 40.1806 85.3194 39.6793C86.3965 38.6066 87.5874 37.6569 88.6919 36.6133C87.8229 36.7092 86.9505 36.8297 86.0754 36.7907C85.5536 36.7612 84.9695 36.6352 84.6408 36.1915C84.3498 35.8183 84.3121 35.1753 84.7258 34.8767C85.0784 34.6302 85.503 34.8942 85.8892 34.8285Z" fill="#FFFCFC"/>
<path d="M95.3005 38.1669C95.7114 36.8775 96.9557 36.0365 98.191 35.635C98.052 36.1044 97.9061 36.5717 97.8136 37.0528C97.8075 37.1945 97.6705 37.2538 97.5713 37.3249C96.992 37.6903 96.4031 38.0635 95.7388 38.2508C95.5834 38.321 95.4354 38.2344 95.3005 38.1669Z" fill="#19191C"/>
<path d="M77.5878 36.5963C79.2347 36.7491 80.8655 36.3279 82.5096 36.3399C82.9491 36.3519 83.4779 36.4183 83.7305 36.8274C84.0023 37.2667 83.838 37.8118 83.6025 38.2289C82.5664 40.0041 81.0565 41.4209 79.6503 42.8945C80.9031 42.7213 82.1837 42.7514 83.4264 42.987C85.0178 43.267 86.6476 43.6176 88.2643 43.341C88.6334 43.291 88.9895 43.1472 89.3654 43.1664C89.5558 43.163 89.6927 43.3623 89.655 43.543C89.6037 43.8895 89.2915 44.1128 89.0142 44.2839C87.8693 44.9626 86.499 45.1426 85.1883 45.0714C82.8978 44.981 80.5895 44.8694 78.3089 45.1679C77.7018 45.2193 77.1715 45.5604 76.5743 45.6453C76.1597 45.7096 75.6985 45.5322 75.4986 45.1495C75.2048 44.6092 75.3507 43.9381 75.6712 43.443C76.2025 42.6289 76.9387 41.9817 77.6142 41.2901C78.6266 40.2616 79.6942 39.2871 80.7696 38.3247C79.7845 38.4846 78.7755 38.6555 77.7803 38.4792C77.3611 38.3925 76.9147 38.2435 76.6408 37.894C76.3662 37.527 76.5113 36.9671 76.8846 36.7261C77.0845 36.5699 77.3495 36.5865 77.5878 36.5963Z" fill="#FFFCFC"/>
<path d="M62.3667 37.0091C63.9817 36.4274 65.7768 36.235 67.4504 36.6794C68.7497 37.0119 69.8946 37.9294 70.466 39.1456C71.0094 40.3098 71.0019 41.7012 70.5089 42.8817C69.9583 44.2759 68.8264 45.3681 67.5417 46.1022C66.5694 46.6623 65.47 47.0506 64.3398 47.0705C63.991 47.0513 63.5078 47.0095 63.3619 46.6323C63.2579 46.2186 63.6859 45.9851 64.0118 45.879C65.2865 45.4674 66.4735 44.7368 67.3435 43.7096C67.8978 43.0454 68.1259 42.1045 67.8732 41.2691C67.727 40.7582 67.3775 40.3173 66.9309 40.0324C66.2343 39.5818 65.3988 39.3476 64.5689 39.3764C64.576 39.927 64.5788 40.4816 64.473 41.0254C64.0402 43.3549 63.2551 45.5961 62.5403 47.8484C61.9887 49.4946 61.4611 51.1538 60.7632 52.7458C60.5589 53.1786 60.3589 53.6635 59.9354 53.9278C59.645 54.1195 59.2075 54.1113 58.9811 53.8251C58.6552 53.4292 58.6323 52.8842 58.6086 52.3939C58.6069 50.5347 58.9192 48.6824 59.4588 46.9055C60.2193 44.493 61.0098 42.0628 62.2992 39.8715C61.8051 39.9557 61.2437 40.0488 60.7907 39.775C60.338 39.4709 60.2942 38.8179 60.5407 38.3667C60.9094 37.6675 61.6599 37.2875 62.3667 37.0091Z" fill="#FFFCFC"/>
<path d="M74.3204 37.4527C74.6163 37.2945 75.049 37.3658 75.1953 37.6927C75.4719 38.2827 75.4654 38.962 75.4171 39.5985C75.2518 41.5145 74.1167 43.1435 73.6456 44.9766C73.569 45.2718 73.5892 45.5971 73.4402 45.8696C73.181 46.2284 72.6305 46.099 72.3439 45.8415C71.7741 45.2998 71.5687 44.4822 71.5496 43.7194C71.5612 42.5546 72.0289 41.4528 72.5767 40.4434C72.9958 39.7005 73.4319 38.9647 73.7791 38.183C73.9168 37.9163 74.0256 37.5849 74.3204 37.4527Z" fill="#FFFCFC"/>
<path d="M92.1627 43.5181C92.6215 43.3237 93.2254 43.6592 93.2747 44.1632C93.3473 44.8589 92.9248 45.4635 92.7297 46.1052C93.8787 45.9265 95.0175 45.6799 96.1493 45.4135C96.4959 45.3369 96.841 45.1917 97.2026 45.226C97.3957 45.2177 97.5024 45.4697 97.397 45.6197C97.2279 45.9149 96.8971 46.0627 96.6164 46.2311C95.1517 46.992 93.5993 47.5733 92.0202 48.0465C91.3225 50.1549 90.7965 52.3139 90.2248 54.4586C90.1446 54.7408 90.0536 55.0366 89.8413 55.2503C89.6818 55.4173 89.377 55.4454 89.2113 55.2729C88.9662 55.0195 88.9115 54.6525 88.8594 54.319C88.6471 52.3578 88.9539 50.3802 89.4867 48.4929C88.9313 48.4512 88.3417 48.4355 87.8541 48.1334C87.5097 47.9342 87.3598 47.4521 87.546 47.0981C87.6761 46.8708 87.9206 46.7174 88.1808 46.6906C88.4869 46.6304 88.7759 46.8002 89.0812 46.7749C89.4729 46.7503 89.8578 46.6653 90.2406 46.579C90.6213 45.7436 91.0623 44.9383 91.5272 44.148C91.6813 43.8913 91.871 43.6283 92.1627 43.5181Z" fill="#FFFCFC"/>
<path d="M43.6642 45.7708C44.3754 45.2956 45.4261 45.4442 45.9941 46.0803C46.5054 46.635 46.7272 47.3862 46.8423 48.1155C47.0241 49.3522 46.96 50.6129 47.1856 51.8448C47.236 52.1467 47.3244 52.4707 47.1966 52.7665C47.0607 53.1465 46.6642 53.395 46.2636 53.3732C45.5707 53.339 44.8859 53.0862 44.3298 52.6699C43.8249 52.2912 43.5318 51.7023 43.3526 51.1106C43.111 50.2863 42.9603 49.4371 42.8826 48.5825V47.5204C42.9566 46.8843 43.1126 46.1694 43.6642 45.7708Z" fill="#19191C"/>
<path d="M76.8759 47.032C77.0748 46.7951 77.3498 46.602 77.6638 46.5664C77.8521 46.5417 78.0492 46.6472 78.0976 46.8383C78.2088 47.2217 78.1194 47.6264 78.0746 48.014C77.9322 49.174 77.7123 50.3216 77.5251 51.4734C77.8729 51.3762 78.2033 51.1406 78.5779 51.1872C78.7594 51.1989 78.7275 51.4365 78.7046 51.5598C78.4417 52.1939 77.789 52.5088 77.2402 52.854C76.992 54.0605 76.7307 55.2644 76.4332 56.4599C76.2706 57.057 76.0305 57.7063 75.4763 58.0445C75.1541 58.2636 74.6946 58.3088 74.3789 58.0568C73.968 57.7315 73.864 57.1749 73.8547 56.6798C73.8684 55.8772 74.0399 55.089 74.2036 54.307C73.1683 54.7268 72.1165 55.1233 71.0198 55.3561C70.6801 56.8681 70.3624 58.3882 69.8985 59.868C69.7177 60.4268 69.1873 60.8103 68.6214 60.9068C68.227 61.002 67.7997 60.7911 67.6087 60.4405C67.3559 59.9948 67.3248 59.4647 67.3319 58.9641C67.3998 57.8199 67.6634 56.6996 67.9483 55.5944C67.3083 55.4883 66.6191 55.3404 66.1378 54.8747C65.7953 54.546 65.7919 53.9598 66.1076 53.614C66.3178 53.3826 66.6445 53.3277 66.9375 53.2806C67.5724 53.199 68.2095 53.1416 68.844 53.0566C69.4821 51.3735 70.1717 49.6875 71.1824 48.1893C71.5101 47.7859 71.8206 47.2566 72.3636 47.1367C72.8248 47.0923 72.8933 47.6647 72.8714 48.003C72.7273 49.6109 72.1795 51.1414 71.825 52.7074C72.8457 52.6067 73.8509 52.3931 74.838 52.1192C75.1119 51.1332 75.3968 50.149 75.7601 49.1918C76.0395 48.4304 76.351 47.6606 76.8759 47.032Z" fill="#FFFCFC"/>
<path d="M85.7671 48.1581C86.0553 47.8774 86.586 47.813 86.8784 48.1198C87.0674 48.3738 87.027 48.7155 86.9914 49.0113C86.734 50.5815 86.6819 52.1956 86.9154 53.7726C86.9531 54.1204 87.2112 54.5141 86.9503 54.8305C86.6079 55.1153 86.1101 54.9038 85.802 54.6655C85.1618 54.1239 84.7372 53.348 84.5618 52.5317C83.9271 53.4254 83.2307 54.3292 82.2686 54.8873C81.5824 55.2626 80.6807 55.4578 79.9784 55.0188C79.3895 54.6326 79.333 53.8458 79.3549 53.2076C79.3429 52.2338 79.877 51.3478 79.8736 50.3795C79.8709 49.9727 79.4929 49.7735 79.2032 49.5708C78.955 49.4064 79.0498 49.014 79.3056 48.9086C80.0763 48.5388 81.1168 48.6997 81.6359 49.4174C82.3487 50.3213 82.1165 51.5545 81.907 52.5947C82.4746 52.3208 82.9342 51.8764 83.4169 51.4806C83.8936 51.0438 84.3804 50.6013 84.7584 50.0727C85.0652 49.4235 85.2363 48.6758 85.7671 48.1581Z" fill="#FFFCFC"/>
<path d="M106.395 66.481C106.65 66.468 106.904 66.4701 107.16 66.4707V66.6316H106.886C106.886 66.898 106.885 67.1637 106.886 67.4314C106.835 67.4314 106.733 67.4308 106.682 67.4294C106.681 67.1637 106.682 66.898 106.682 66.6337C106.615 66.6324 106.479 66.631 106.411 66.6296C106.407 66.5926 106.399 66.5187 106.395 66.481Z" fill="#19191C"/>
<path d="M107.276 66.4707C107.372 66.4714 107.469 66.4728 107.567 66.4741C107.644 66.7001 107.724 66.9247 107.808 67.1493C107.888 66.9234 107.968 66.6981 108.049 66.4735C108.147 66.4728 108.246 66.4707 108.347 66.4707C108.348 66.7912 108.347 67.1116 108.348 67.4328C108.296 67.4321 108.194 67.4315 108.142 67.4315C108.143 67.1863 108.143 66.9418 108.147 66.6988C108.054 66.9398 107.984 67.1918 107.873 67.426C107.842 67.4315 107.781 67.441 107.751 67.4465C107.639 67.215 107.565 66.9686 107.479 66.7281C107.479 66.9604 107.479 67.1931 107.482 67.4266C107.43 67.4294 107.329 67.4349 107.277 67.4369C107.273 67.1144 107.273 66.7919 107.276 66.4707Z" fill="#19191C"/>
</g>
</g>
<defs>
<clipPath id="clip0_0_890">
<rect width="74.4775" height="70" fill="white" transform="translate(42.9019 3.9668)"/>
</clipPath>
</defs>
</svg>
