<svg width="160" height="79" viewBox="0 0 160 79" fill="none" xmlns="http://www.w3.org/2000/svg">
<g clip-path="url(#clip0_0_944)">
<path d="M106.714 71.1464C101.416 74.1386 92.3256 74.9936 79.752 74.9936C67.1784 74.9936 58.0881 74.1386 52.7898 71.1464C49.6094 69.3549 48 66.9132 48 65.162C48 64.1643 48.5304 63.5945 49.7118 63.5945H109.791C110.974 63.5945 111.503 64.1643 111.503 65.162C111.504 66.9132 109.895 69.3549 106.714 71.1464ZM109.791 24.7327H49.7118C48.5304 24.7327 48 24.1218 48 23.0226C48 16.5078 57.8028 5.00635 79.752 5.00635C101.498 5.00635 111.504 16.5078 111.504 23.0226C111.504 24.1218 110.974 24.7327 109.791 24.7327Z" fill="#19191C"/>
<path d="M48 38.3108V29.3334C48 28.0714 48.7745 27.1341 50.384 27.1341H52.8099C55.3777 27.1341 57.0282 28.4381 57.0282 30.8798C57.0282 31.9186 56.6414 32.631 56.2546 33.0791C56.1531 33.2016 56.0909 33.2419 56.0909 33.3434C56.0909 33.4256 56.1933 33.5062 56.2949 33.5884C56.539 33.7915 57.619 34.6255 57.619 36.438C57.619 38.6968 55.9693 40.5093 53.258 40.5093H50.384C48.7745 40.5093 48 39.5728 48 38.3108ZM51.5873 32.0201C51.5873 32.2862 51.7501 32.4892 52.0967 32.4892H52.361C53.2379 32.4892 53.5031 31.797 53.5031 31.3086C53.5031 30.7783 53.237 30.1683 52.361 30.1683H52.0967C51.7501 30.1683 51.5873 30.3722 51.5873 30.6365V32.0201ZM51.5873 36.9876C51.5873 37.2528 51.7501 37.4558 52.0967 37.4558H52.4634C53.4409 37.4558 53.7262 36.7032 53.7262 36.1737C53.7262 35.5829 53.4418 34.9318 52.4634 34.9318H52.0967C51.7501 34.9318 51.5873 35.1357 51.5873 35.4V36.9876ZM63.6104 40.6108C66.9124 40.6108 68.6654 38.6355 68.6654 36.1527V29.2931C68.6654 28.0714 67.9521 27.0938 66.6472 27.0938C65.3432 27.0938 64.63 28.0714 64.63 29.2931V35.9286C64.63 36.417 64.3447 36.9876 63.6104 36.9876C62.877 36.9876 62.6319 36.417 62.6319 35.9286V29.2931C62.6319 28.0714 61.8986 27.0938 60.5937 27.0938C59.2888 27.0938 58.5755 28.0714 58.5755 29.2931V36.1527C58.5773 38.6373 60.3092 40.6108 63.6104 40.6108ZM75.9205 39.4118C75.37 38.6985 74.8817 37.293 74.6979 36.2559C74.6568 36.0109 74.5763 35.8691 74.3312 35.8691C74.1282 35.8691 74.0056 35.9916 74.0056 36.2559V38.4132C74.0056 39.6341 73.2924 40.6117 71.9875 40.6117C70.6826 40.6117 69.9702 39.6341 69.9702 38.4132V29.3334C69.9702 28.0705 70.7439 27.1341 72.3542 27.1341H74.6585C77.2464 27.1341 79.3871 28.6 79.3871 31.1861C79.3871 32.8953 78.6528 33.9744 78.0209 34.4627C77.8371 34.6054 77.7969 34.748 77.8581 34.9108C78.1224 35.6232 78.6528 36.2953 79.2435 37.0681C79.6102 37.5363 79.8955 38.0448 79.8955 38.7379C79.8955 39.7759 78.9775 40.6108 77.9185 40.6108C77.2656 40.6108 76.6136 40.3255 75.9205 39.4118ZM75.6956 31.6543C75.6956 31.1248 75.4313 30.514 74.5754 30.514H74.2901C73.9426 30.514 73.7798 30.7187 73.7798 30.983V32.3658C73.7798 32.631 73.9426 32.834 74.2901 32.834H74.5754C75.4313 32.834 75.6956 32.1628 75.6956 31.6543ZM86.2125 40.6318C89.413 40.6318 91.4303 38.5953 91.4303 35.6241C91.4303 33.7311 90.2882 32.428 88.0066 32.428H87.3546C86.1512 32.428 85.2148 32.9986 85.2148 34.2807C85.2148 35.421 86.2125 35.9706 86.9678 35.9706C87.3546 35.9706 87.5996 36.0932 87.5996 36.3776C87.5996 36.7443 87.1717 36.9885 86.6816 36.9885C85.1535 36.9885 84.1138 35.9094 84.1138 33.8939C84.1138 31.6543 85.5412 30.8404 86.6413 30.8404C87.9865 30.8404 88.2105 31.5335 89.1478 31.5335C90.2286 31.5335 90.962 30.6374 90.962 29.7018C90.962 29.0087 90.6557 28.4801 90.1884 28.1134C89.3316 27.4815 88.13 27.0142 86.3368 27.0142C83.1774 27.0142 80.0994 29.0909 80.0994 33.8947C80.0986 38.4938 83.1757 40.6318 86.2125 40.6318ZM98.6241 40.5093C99.7654 40.5093 100.662 39.8371 100.662 38.6163C100.662 37.4147 99.7654 36.7425 98.6241 36.7425H96.7898C96.4432 36.7425 96.2804 36.5395 96.2804 36.2743V35.8875C96.2804 35.6232 96.4432 35.4193 96.7898 35.4193H98.1962C99.1755 35.4193 99.9491 34.8294 99.9491 33.7906C99.9491 32.7526 99.1755 32.1619 98.1962 32.1619H96.7898C96.4432 32.1619 96.2804 31.958 96.2804 31.6928V31.3673C96.2804 31.1029 96.4432 30.899 96.7898 30.899H98.6241C99.7654 30.899 100.662 30.2269 100.662 29.006C100.662 27.8044 99.7654 27.1323 98.6241 27.1323H94.7725C93.1631 27.1323 92.3886 28.0687 92.3886 29.3316V38.3082C92.3886 39.5702 93.1631 40.5075 94.7725 40.5075H98.6241V40.5093ZM101.579 38.4141V29.3342C101.579 28.0714 102.353 27.1358 103.963 27.1358H106.266C108.854 27.1358 110.995 28.6017 110.995 31.187C110.995 32.897 110.26 33.9761 109.629 34.4645C109.445 34.6062 109.404 34.7489 109.466 34.9117C109.73 35.6241 110.158 36.1947 110.851 37.0699C111.218 37.5372 111.503 38.0457 111.503 38.7388C111.503 39.7776 110.585 40.6117 109.526 40.6117C108.874 40.6117 108.222 40.3272 107.529 39.4101C106.979 38.6968 106.49 37.2921 106.306 36.2542C106.266 36.01 106.185 35.8682 105.94 35.8682C105.737 35.8682 105.614 35.9899 105.614 36.2542V38.4124C105.614 39.6332 104.901 40.6108 103.596 40.6108C102.292 40.6108 101.579 39.6341 101.579 38.4141ZM105.39 32.3667C105.39 32.6319 105.553 32.8358 105.899 32.8358H106.185C107.042 32.8358 107.306 32.1637 107.306 31.6543C107.306 31.1248 107.042 30.514 106.185 30.514H105.899C105.553 30.514 105.39 30.7187 105.39 30.983V32.3667ZM60.7985 51.6047C60.6147 51.3193 60.5946 51.1356 60.5946 51.055C60.5946 50.831 60.7171 50.6682 60.9613 50.4442C61.5319 49.9147 62.9383 48.5914 63.7128 47.3907C64.3026 46.4744 64.5477 45.6404 64.5477 44.949C64.5477 43.1777 62.9383 41.7931 61.1853 41.7931C60.0642 41.7931 59.0044 42.4241 58.292 43.5846C57.3337 45.131 56.1916 46.9225 55.4591 47.6358C55.2753 47.8195 55.1738 47.8598 55.032 47.8598C54.7869 47.8598 54.6854 47.697 54.6854 47.4327V45.3962C54.6854 43.4017 53.5031 41.7931 51.3624 41.7931C49.2025 41.7931 48.0403 43.4008 48.0403 45.3962V57.9365C48.0403 59.931 49.2016 61.5404 51.3624 61.5404C53.5031 61.5404 54.6854 59.9328 54.6854 57.9365V55.0467C54.6854 54.8016 54.7869 54.6196 55.032 54.6196C55.3575 54.6196 55.4398 54.9452 55.5203 55.108C55.9894 56.2273 57.3547 58.6086 58.6184 60.0133C59.4752 60.9497 60.5342 61.5404 61.6553 61.5404C63.5509 61.5404 65.1411 59.8908 65.1411 58.1203C65.1411 57.0211 64.6711 56.2063 63.7749 55.2296C62.6328 53.986 61.2877 52.3573 60.7985 51.6047ZM70.0919 41.7914C67.8094 41.7914 66.5658 43.5015 66.5658 45.6386V57.6906C66.5658 59.8286 67.8094 61.5387 70.0919 61.5387C72.3735 61.5387 73.6171 59.8286 73.6171 57.6906V45.6386C73.6171 43.5023 72.3752 41.7914 70.0919 41.7914ZM89.6362 41.7914C87.5366 41.7914 86.3954 43.3588 86.3954 45.3341V49.7309C86.3954 50.0967 86.2729 50.2604 86.0488 50.2604C85.8861 50.2604 85.7635 50.1589 85.6209 49.8744L82.7888 44.3775C81.7089 42.2797 80.5878 41.7914 79.3039 41.7914C77.1632 41.7914 75.9818 43.3999 75.9818 45.4155V57.9969C75.9818 59.9721 77.123 61.5396 79.2216 61.5396C81.3212 61.5396 82.4624 59.9721 82.4624 57.9969V53.6C82.4624 53.2342 82.584 53.0706 82.809 53.0706C82.9717 53.0706 83.0943 53.1721 83.236 53.4574L86.069 58.9534C87.1489 61.0512 88.3103 61.5396 89.5539 61.5396C91.6937 61.5396 92.876 59.9319 92.876 57.9164V45.3341C92.876 43.3588 91.7357 41.7914 89.6362 41.7914ZM106.327 49.6294H105.329C103.535 49.6294 102.149 50.4643 102.149 52.296C102.149 53.965 103.657 54.7588 104.778 54.7588C105.329 54.7588 105.716 54.9215 105.716 55.3486C105.716 55.879 105.064 56.2238 104.37 56.2238C102.068 56.2238 100.498 54.6564 100.498 51.7456C100.498 48.5083 102.639 47.3277 104.288 47.3277C106.306 47.3277 106.632 48.3455 108.038 48.3455C109.669 48.3455 110.769 47.0231 110.769 45.6798C110.769 44.6821 110.321 43.9084 109.608 43.3789C108.365 42.4626 106.49 41.7905 103.84 41.7905C99.0915 41.7905 94.4653 44.7827 94.4653 51.7456C94.4653 58.4021 99.0906 61.5168 103.656 61.5168C108.445 61.5168 111.482 58.5649 111.482 54.2494C111.483 51.5224 109.772 49.6294 106.327 49.6294Z" fill="#19191C"/>
</g>
<defs>
<clipPath id="clip0_0_944">
<rect width="63.504" height="70" fill="white" transform="translate(48 5)"/>
</clipPath>
</defs>
</svg>
