<svg width="160" height="79" viewBox="0 0 160 79" fill="none" xmlns="http://www.w3.org/2000/svg">
<g clip-path="url(#clip0_0_882)">
<path d="M49.1807 7.71118H62.9453V54.2149H51.3509L47.8005 9.06011C47.8005 9.06011 47.617 7.71118 49.1807 7.71118Z" fill="#19191C"/>
<path d="M53.2002 74.9192C52.3259 74.9186 51.5742 74.4988 51.0427 73.9253C50.5097 73.3488 50.1714 72.6152 50.112 71.8872L45.1611 8.90119C45.1528 8.80194 45.1487 8.70237 45.1488 8.60277C45.1482 7.62831 45.5326 6.74295 46.17 6.1071C46.8059 5.46987 47.6972 5.08075 48.6902 5.08154H111.346C112.339 5.08075 113.229 5.46987 113.866 6.1067C114.502 6.74295 114.887 7.62831 114.886 8.60277C114.886 8.7002 114.883 8.79842 114.875 8.89822L109.924 71.8874C109.864 72.6154 109.526 73.349 108.993 73.9255C108.461 74.499 107.71 74.9188 106.836 74.9194V74.0677C107.428 74.0683 107.96 73.7841 108.369 73.3457C108.777 72.91 109.037 72.3241 109.075 71.8211L114.026 8.83208C114.032 8.75465 114.035 8.67822 114.035 8.60277C114.029 7.10592 112.881 5.93839 111.346 5.93324H48.6902C47.1542 5.93839 46.0056 7.10612 46.0001 8.60277C46.0001 8.67921 46.0031 8.75386 46.0096 8.83129L50.9608 71.8209C50.998 72.3239 51.2584 72.9098 51.6661 73.3455C52.0756 73.7839 52.6079 74.0679 53.2004 74.0675H106.836V74.9192H53.2002Z" fill="#19191C"/>
<path d="M110.856 7.71118H97.0042V54.2149H108.686L112.236 9.06031C112.236 9.06011 112.42 7.71118 110.856 7.71118Z" fill="#19191C"/>
<path d="M114.303 70.2966C114.218 70.3227 114.16 70.4611 114.16 70.4611L113.792 71.2449L113.402 70.4611C113.402 70.4611 113.323 70.3041 113.258 70.2966H113.056V72.2659H113.319V70.8722L113.651 71.5564C113.718 71.6958 113.83 71.6978 113.901 71.5608L114.224 70.938V72.2657H114.512V70.2964H114.303V70.2966ZM111.791 72.2659H112.088V70.3906H111.791V72.2659Z" fill="#19191C"/>
<path d="M111.267 70.511C111.267 70.5417 111.292 70.567 111.323 70.567H112.528C112.543 70.5669 112.557 70.561 112.568 70.5505C112.578 70.54 112.584 70.5258 112.584 70.511V70.2947H111.267V70.511ZM81.0845 70.4407C79.1282 70.6229 76.0929 70.4543 76.0929 70.4543C75.7569 70.4452 75.8977 70.0205 75.8977 70.0205L77.9712 60.4627C78.1615 59.6122 77.2769 59.3132 77.2769 59.3132C77.0213 59.2271 77.0749 58.9813 77.0749 58.9813C77.273 57.8045 77.4722 57.8489 77.4722 57.8489H88.3073C88.6891 57.8489 88.6032 58.15 88.6032 58.15C88.6032 58.15 88.1881 60.1655 87.8733 61.3067C87.8083 61.5976 87.4919 61.5782 87.4919 61.5782H86.617C86.2287 61.5863 86.2499 61.1887 86.2499 61.1887V60.7806C86.2499 59.8772 85.1843 59.9212 85.1843 59.9212H82.412L81.6807 63.2194C81.6807 63.2194 81.6292 63.3172 81.7591 63.3172H85.5792C86.0208 63.3067 85.9123 63.723 85.9123 63.723C85.6469 64.8743 85.5049 65.3571 85.4473 65.5272C85.4473 65.5272 85.4392 65.6244 85.2525 65.6254C84.7594 65.6371 83.172 65.6668 81.1471 65.6262L80.7619 67.363C80.7619 67.363 80.6764 67.6894 80.6768 68.1096C80.6768 68.1096 80.6625 68.6135 81.1336 68.8846C81.1579 68.9009 81.3617 69.0234 81.4148 69.0721C81.4774 69.1228 81.4716 69.1739 81.4716 69.1739C81.4886 69.6613 81.2871 70.1682 81.2035 70.3561C81.1945 70.3806 81.1783 70.4017 81.1571 70.4168C81.1358 70.4319 81.1105 70.4402 81.0845 70.4407ZM67.8792 57.8881C67.8792 57.8881 67.4608 57.8491 67.0578 57.8491H62.3779C62.053 57.8491 61.9928 57.9895 61.9928 57.9895C61.8953 58.1419 61.8237 58.4144 61.7282 58.9815C61.7282 58.9815 61.6849 59.2279 61.9302 59.3134C61.9302 59.3134 62.8148 59.6124 62.6245 60.4629L61.3167 66.6957C60.9017 68.9915 59.8429 69.0256 59.8429 69.0256C59.5098 69.0613 59.4529 69.3389 59.4529 69.3389L59.2751 70.0165C59.1789 70.3391 59.3522 70.3854 59.3522 70.3854C59.3522 70.3854 59.6056 70.508 60.9019 70.508L62.7486 70.5165C64.2752 70.5165 65.4102 70.4751 65.4102 70.4751C65.8364 70.465 65.9207 70.2427 65.9207 70.2427C66.0043 70.0914 66.0972 69.451 66.0887 69.1601C66.0887 69.1601 66.0948 69.1082 66.0318 69.0583C65.9788 69.0096 65.775 68.887 65.7502 68.8704C65.2819 68.6254 65.3011 68.3424 65.3011 68.3424C65.2972 68.0008 65.3867 67.5959 65.3867 67.5959L67.0196 60.1511C67.1235 59.5806 67.6952 59.371 67.6952 59.371C68.0649 59.2651 68.136 58.9247 68.136 58.9247L68.2942 58.2186C68.294 58.2184 68.4022 57.9314 67.8792 57.8881Z" fill="#19191C"/>
<path d="M76.3648 58.3168L76.2155 58.9449C76.1559 59.2651 75.7618 59.2938 75.7618 59.2938C74.8089 59.4612 74.4317 59.7815 74.4317 59.7815C74.4317 59.7815 70.6863 62.7806 70.0049 63.4081C70.0049 63.4081 69.878 63.501 69.9647 63.6216C69.9647 63.6216 72.7273 67.5232 73.6529 68.5335C73.6529 68.5335 74.021 68.9775 74.6398 69.0549C74.6398 69.0549 75.237 69.0951 75.1303 69.4931C75.1303 69.4931 75.0307 69.9712 74.9095 70.2999C74.8547 70.4492 74.7555 70.4508 74.7555 70.4508C74.2038 70.5153 71.5049 70.467 71.5049 70.467C69.4075 70.467 68.1679 68.542 68.1679 68.542C68.1679 68.542 66.9704 67.022 65.8496 64.5089L66.1369 63.7079C66.1369 63.7079 69.5794 60.9202 70.7113 59.8659C70.7113 59.8659 71.1374 59.5562 70.6113 59.3384C70.256 59.1605 70.378 58.8162 70.378 58.8162C70.4334 58.4665 70.5433 58.0772 70.5433 58.0772C70.5835 57.8823 70.8887 57.8946 70.8887 57.8946C70.8887 57.8946 71.8942 57.8492 72.4546 57.8492H74.0095C75.0491 57.8492 76.0109 57.9081 76.0109 57.9081C76.0109 57.9081 76.4745 57.8946 76.3648 58.3168ZM99.2989 69.7916C99.5367 68.9407 99.5839 68.2054 99.5839 68.2054C99.6353 67.764 99.1027 67.9456 99.1027 67.9456C99.1027 67.9456 97.5575 68.3413 96.5779 68.3413C91.6224 68.3413 92.1499 64.2149 92.1499 64.2149C92.3947 61.7277 93.8834 59.7305 96.6155 59.674C97.7379 59.6509 98.4151 60.3418 98.4922 61.4497C98.4922 61.4497 98.4852 61.8107 98.8743 61.8107H99.5918C100.009 61.8107 100.076 61.3517 100.076 61.3517C100.301 60.4168 100.66 58.631 100.66 58.631C100.762 58.1696 100.357 58.0746 100.357 58.0746C99.6007 57.8134 98.3062 57.658 96.8044 57.658C90.8691 57.658 88.2124 60.6726 87.7998 64.2137C87.3847 67.7713 89.7012 70.6587 94.8072 70.6587C96.5224 70.6587 97.8478 70.4829 98.8801 70.165C98.8801 70.165 99.2146 70.0937 99.2989 69.7916ZM91.74 23.9629C91.74 23.9629 91.5693 23.9021 91.6626 23.6728L92.1755 21.989C92.6024 20.7665 92.4846 20.1609 92.4846 20.1609C92.4846 20.1609 91.7871 19.7856 91.7378 18.7955C91.7378 18.7955 90.9073 8.23047 79.7191 8.23047C76.6491 8.23047 73.0127 9.97326 73.0127 9.97326C73.0127 9.97326 72.7331 10.1004 72.662 10.5089C72.662 10.5089 72.6004 10.856 72.2746 11.2426C72.0925 11.4701 71.7572 11.7262 71.7572 11.7262C71.4136 11.9713 70.7176 12.3321 69.5297 12.4115C69.5297 12.4115 69.1811 12.4105 69.4136 12.7767C69.4136 12.7767 69.8027 13.464 70.578 13.8935C70.578 13.8935 70.9004 14.0503 70.3821 14.0911C70.3821 14.0911 69.8568 14.1418 69.2805 14.1656C68.3053 14.2058 68.0488 14.7117 67.9815 14.99C67.9815 14.99 67.9338 15.1793 68.0112 15.3559C68.134 15.6365 68.4322 16.0409 68.4322 16.0409C68.4322 16.0409 68.7445 16.4763 68.7225 16.9951C68.7047 17.4133 68.237 17.7989 68.237 17.7989C68.237 17.7989 67.4389 18.3736 67.4389 18.9262C67.4389 18.9262 67.4267 19.23 67.4916 19.5672C67.4916 19.5672 67.8877 21.6053 68.49 23.6845C68.49 23.6845 68.5653 23.8803 68.4015 23.8805C68.4015 23.8805 67.6552 23.9437 67.6552 25.1453C67.6552 25.9356 67.9461 27.0364 67.9461 27.0364C67.9461 27.0364 68.7477 29.6509 68.8746 30.2474C68.9116 30.381 68.9192 30.5018 68.934 30.6012C69.0154 31.2341 69.3774 33.2824 70.6435 33.2167C70.6435 33.2167 71.0317 33.1844 71.0317 33.4246C71.0317 33.4246 71.1354 35.1563 71.7554 36.4247C71.7554 36.4247 71.9245 36.6926 71.9667 37.2985C71.9667 37.2985 72.1388 39.4805 75.1658 41.935L77.2656 43.5275C77.2656 43.5275 75.659 43.6123 74.9545 43.6826C74.9545 43.6826 74.6087 43.6802 74.5881 44.1756C74.5881 44.1756 74.4755 45.1762 74.5741 46.205C74.5741 46.205 74.5802 46.6978 75.166 46.6982C75.166 46.6982 77.0967 46.6701 78.7878 46.6137C78.7878 46.6137 79.023 46.5848 78.9005 46.8814C78.9005 46.8814 77.6602 50.3205 76.0115 53.5613C76.0115 53.5613 75.7588 53.9643 76.0891 53.9902C76.0891 53.9902 76.8218 54.0656 77.6185 54.5407C77.6185 54.5407 77.8555 54.6498 77.9701 54.4031C77.9701 54.4031 79.2545 51.6656 79.9886 49.3412C79.9886 49.3412 80.1415 50.0442 79.9733 54.9688C79.9733 54.9688 79.9296 55.3967 80.3288 55.2823C80.3288 55.2823 80.9678 55.0839 81.7015 55.1064C82.0833 55.1183 82.0839 54.7393 82.0839 54.7393C82.4051 50.0294 81.304 46.7109 81.304 46.7109C81.304 46.7109 81.2177 46.5551 81.4848 46.5418C82.9122 46.4717 84.8566 46.6561 84.8566 46.6561C85.2978 46.7131 85.2684 46.2822 85.2684 46.2822C85.3285 45.5756 85.2837 43.9954 85.2837 43.9954C85.3384 43.3483 82.9112 43.4978 82.9112 43.4978C82.7118 43.5022 82.8969 43.3923 82.8969 43.3923C82.8969 43.3923 84.6166 42.3867 86.2211 40.736C86.2211 40.736 87.5265 39.7302 88.2865 37.4425C88.2865 37.4425 89.0265 35.4755 89.0265 33.4872C89.0265 33.4872 89.0111 33.1468 89.4782 33.1747C89.4782 33.1747 90.4249 33.3016 90.7933 32.0206C90.7933 32.0206 91.4982 30.0349 92.1446 27.2552C92.1446 27.2552 92.4523 25.9655 92.4664 25.1817C92.482 24.2796 91.74 23.9629 91.74 23.9629ZM70.2386 29.9703C69.8271 30.019 69.6556 29.3353 69.6556 29.3353L69.0609 27.1473C69.0609 27.1473 68.8558 26.3774 68.8186 25.9178C68.7401 24.9481 69.4158 24.9542 69.4158 24.9542C70.0508 24.9542 70.077 25.6699 70.077 25.6699C70.077 25.6699 70.0841 25.8485 70.0019 26.0105C70.0019 26.0105 69.917 26.158 69.9211 26.4608C69.9259 26.8071 70.2099 28.3311 70.2099 28.3311C70.3657 29.0355 70.3831 29.5317 70.3831 29.5317C70.3932 29.985 70.2386 29.9703 70.2386 29.9703ZM70.3748 22.3372C70.3748 22.3372 70.3532 23.1346 70.1914 23.3075C70.1914 23.3075 69.9661 23.5655 69.7594 23.5655C69.6508 23.5655 69.6308 23.4691 69.6308 23.4691C69.6308 23.4691 68.7898 20.655 68.7898 19.7276C68.7898 19.0377 69.5661 18.024 69.5661 18.024C69.5661 18.024 70.195 17.506 69.6415 16.2343L69.4475 15.7814C69.4475 15.7814 69.2994 15.527 69.6415 15.5119C69.6415 15.5119 71.5715 15.3072 72.984 14.5955C72.984 14.5955 73.9327 14.0456 74.957 14.0456C74.957 14.0456 75.5697 14.0286 75.5531 14.2244C75.5464 14.3036 75.3883 14.3476 75.3883 14.3476C75.3883 14.3476 73.4798 14.9945 72.5527 16.9353C72.5527 16.9353 72.3453 17.3563 72.0263 17.6852C71.9683 17.7417 71.8228 17.8526 71.8228 17.8526C71.6229 18.0025 71.4853 18.1714 71.4853 18.1714C71.3128 18.3801 71.076 18.7407 70.9247 19.275C70.9247 19.2751 70.3748 21.0326 70.3748 22.3372ZM71.8661 23.8726C71.8661 24.0154 71.7374 24.131 71.5784 24.131C71.5166 24.131 71.4732 24.1156 71.4732 24.1156C71.4732 24.1156 71.2721 24.0382 71.1546 24.0289C71.1546 24.0289 70.8916 23.9855 70.8916 23.871V23.8649C70.8916 23.7504 71.1546 23.7071 71.1546 23.7071C71.2722 23.6978 71.4732 23.6203 71.4732 23.6203C71.4732 23.6203 71.5166 23.6049 71.5784 23.6049C71.7374 23.6049 71.8661 23.7205 71.8661 23.8633V23.8726ZM71.9319 28.7927C71.9319 28.7927 71.798 28.2493 72.0988 28.2984C72.0988 28.2984 72.2899 28.3143 72.4905 28.4075C72.4905 28.4075 73.1067 28.703 73.3123 28.703C73.3481 28.7105 73.5818 28.6772 73.6396 28.2857C73.6396 28.2857 73.6699 28.1289 73.4148 28.0097C73.4148 28.0097 72.2529 27.5024 72.2529 26.7768C72.2529 26.7768 72.2592 26.5071 72.4839 26.5071C72.4839 26.5071 72.5994 26.4879 72.7279 26.6099C72.7279 26.6099 73.1002 26.963 73.3249 26.963C73.416 26.9715 73.5739 26.9436 73.7808 26.6804C73.7808 26.6804 74.2638 26.0384 75.1355 26.0384C75.3988 26.0384 76.0664 26.1667 76.0664 26.1667C76.0664 26.1667 76.6186 26.2245 77.2157 26.1281C77.2157 26.1281 77.8062 25.9869 77.466 26.3336C77.466 26.3336 77.267 26.5198 77.267 26.6097C77.267 26.7703 77.3824 26.9051 77.3824 26.9051C77.3824 26.9051 77.8254 27.637 76.5222 28.0992C76.5222 28.0992 76.0119 28.2919 75.4565 28.2919C75.4565 28.2919 75.1933 28.2772 75.1933 28.5101V28.7028C75.1933 28.7028 75.1675 28.9212 75.5143 28.9212H76.2977C76.4687 28.9212 76.3747 29.0434 76.3747 29.0434C76.3747 29.0434 76.142 29.4408 76.0216 29.8139C75.944 30.0875 75.7519 30.1604 75.7519 30.1604C75.7519 30.1604 75.0586 30.4238 74.3331 30.9052C74.3331 30.9052 73.9222 31.2068 73.4214 31.2068C72.4329 31.2066 71.9319 28.7927 71.9319 28.7927ZM73.7572 24.3695C73.7374 24.395 73.4339 24.597 73.0826 24.8186C72.7311 25.0402 72.4123 25.2326 72.374 25.2467C72.3358 25.2606 72.2723 25.2701 72.2329 25.2677C72.1934 25.2655 72.1422 25.2493 72.119 25.2319C72.0958 25.2144 72.0653 25.1707 72.0515 25.1348C72.0376 25.099 72.0261 25.0392 72.0261 25.0019C72.0261 24.9649 72.0414 24.8861 72.0598 24.8269C72.0784 24.7679 72.1352 24.6643 72.1863 24.5972C72.2372 24.5299 72.3273 24.4368 72.3865 24.3905C72.4457 24.3441 72.5661 24.2815 72.6542 24.2514C72.7424 24.2213 72.8828 24.1899 72.9663 24.1817C73.0499 24.1736 73.2148 24.1641 73.3333 24.1607C73.4515 24.1572 73.5758 24.1582 73.6095 24.1629C73.6432 24.1675 73.6954 24.1885 73.7255 24.2093C73.7556 24.2301 73.7832 24.2643 73.7867 24.2851C73.7901 24.3061 73.7768 24.3439 73.7572 24.3695ZM74.1261 24.9008C74.263 24.8219 74.4897 24.6958 74.6301 24.6204C74.7703 24.5451 74.9545 24.4558 75.0392 24.4221C75.1257 24.388 75.2136 24.3577 75.3028 24.3314C75.3632 24.3152 75.4608 24.2952 75.52 24.2871C75.5792 24.279 75.6721 24.2734 75.7266 24.2746C75.781 24.2758 75.8721 24.2825 75.9289 24.2893C75.9858 24.2962 76.0901 24.3257 76.1608 24.3546C76.2315 24.3837 76.3246 24.4368 76.3676 24.4728C76.4103 24.5089 76.4721 24.5667 76.5044 24.6013C76.5369 24.6362 76.5796 24.693 76.5992 24.7279C76.619 24.7627 76.6361 24.8055 76.6371 24.8227C76.6383 24.8402 76.6345 24.8705 76.6287 24.8903C76.623 24.9099 76.6002 24.9309 76.5783 24.9366C76.5563 24.9423 76.4984 24.9481 76.4497 24.9493C76.401 24.9503 76.2729 24.9485 76.165 24.9451C76.0571 24.9417 75.9006 24.9408 75.8171 24.9429C75.7335 24.9453 75.5873 24.9623 75.4923 24.981C75.3972 24.9996 75.2624 25.0318 75.1929 25.0526C75.1232 25.0734 74.9658 25.1324 74.8428 25.1833C74.7198 25.2344 74.5406 25.3083 74.4442 25.3479C74.3477 25.3875 74.216 25.4404 74.1511 25.4659C74.0861 25.4915 73.9943 25.5208 73.9465 25.5313C73.8988 25.5418 73.8277 25.553 73.7883 25.5566C73.7489 25.5602 73.6834 25.5602 73.643 25.5566C73.6024 25.553 73.5481 25.5378 73.5228 25.5227C73.4974 25.5077 73.4697 25.4774 73.4616 25.4554C73.4535 25.4334 73.4489 25.4029 73.4511 25.3881C73.4533 25.373 73.4657 25.3483 73.4784 25.3332C73.4911 25.3182 73.5859 25.2471 73.6893 25.1752C73.8317 25.0787 73.9774 24.9871 74.1261 24.9008ZM77.587 30.0404C77.587 30.0404 77.6571 30.2058 77.6632 30.3295C77.6767 30.6008 77.4789 30.5996 77.4789 30.5996C76.8598 30.6224 76.8753 29.7101 76.8753 29.7101C76.8723 28.9022 77.3169 28.9063 77.3169 28.9063C77.3169 28.9063 77.5646 28.8873 77.6759 29.1319C77.6759 29.1319 77.5361 29.3351 77.5361 29.6782C77.5361 29.92 77.587 30.0404 77.587 30.0404ZM76.3377 39.5255C74.8081 39.5255 73.5042 37.4064 73.5042 37.4064C73.5042 37.4064 72.2748 35.6425 72.2748 34.1787C72.2748 34.1787 72.2467 33.3624 72.9317 32.8933C72.9317 32.8933 73.2505 32.6775 73.4945 32.6775C73.4945 32.6775 73.8513 32.6212 73.8699 33.2311C73.8699 33.2311 74.0857 36.2712 74.977 37.4064C74.977 37.4064 75.1608 37.6403 75.3806 37.1156C75.3806 37.1156 75.5173 36.805 75.6808 36.5714C75.6808 36.5714 75.8392 36.3183 75.9436 36.6934C76.2468 37.7833 76.666 38.992 76.666 38.992C76.8856 39.5524 76.3377 39.5255 76.3377 39.5255ZM76.9676 33.629C75.6687 33.629 75.1553 33.2175 75.1553 33.2175C75.1553 33.2175 74.8891 33.0606 75.2887 32.8505C75.2887 32.8505 76.3226 32.2836 76.7785 31.9834C76.7785 31.9834 77.3699 31.5943 77.7369 31.5943C78.0351 31.5943 78.4795 31.8834 78.4795 31.8834C78.4795 31.8834 79.2244 32.3614 79.8803 32.3614C80.7646 32.3614 81.0478 32.028 81.0478 32.028C81.0478 32.028 81.392 31.6442 81.7734 31.5414C81.9342 31.4981 82.2623 31.2878 82.2623 31.2878C82.6769 31.0959 82.8563 31.399 82.8563 31.399L83.4009 32.0303C84.0413 32.7791 84.6199 32.9214 84.6199 32.9214C84.9819 33.0452 84.6817 33.2494 84.6817 33.2494C84.6817 33.2494 84.2114 33.622 82.471 33.622C81.6351 33.622 80.2359 33.162 80.2359 33.162C79.8426 33.0111 79.4579 33.1953 79.4579 33.1953C79.4579 33.1953 78.4844 33.629 76.9676 33.629ZM86.416 25.6683C86.416 25.6683 86.4659 25.7047 86.4411 25.7574C86.4411 25.7574 86.4205 25.8364 86.2427 25.8364C85.7805 25.8364 84.9249 25.1433 84.9249 25.1433C84.9249 25.1433 84.7071 24.9685 84.3185 24.9685C84.1504 24.9685 83.9011 25.0069 83.9011 25.0069C83.6781 25.0552 83.4074 25.0542 83.4074 25.0542C83.0346 25.0542 83.2815 24.8546 83.2815 24.8546C83.2815 24.8546 83.8607 24.3806 84.4524 24.3926C84.8778 24.4011 85.2453 24.7548 85.2453 24.7548C85.2453 24.7548 86.0168 25.4162 86.416 25.6683ZM85.7803 24.1602H86.3162C86.3162 24.1602 87.2305 24.0728 87.2305 24.8067C87.2305 24.8067 87.2594 25.197 86.8984 25.197C86.4207 25.197 85.6463 24.399 85.6463 24.399C85.3797 24.1423 85.7803 24.1602 85.7803 24.1602ZM82.1264 34.4468C82.1179 34.466 82.0817 34.4951 82.0458 34.5116C82.01 34.528 81.8403 34.5751 81.6688 34.6161C81.4977 34.6573 81.2082 34.7133 81.0256 34.7407C80.8433 34.768 80.5763 34.7995 80.4326 34.8104L79.9048 34.8504C79.7583 34.8613 79.5502 34.8704 79.4424 34.8704C79.3347 34.8704 79.1583 34.8615 79.0506 34.8504C78.9426 34.8393 78.7911 34.7989 78.7137 34.7607C78.6363 34.7223 78.5272 34.6555 78.4713 34.6124C78.4155 34.5692 78.3537 34.5145 78.3341 34.4912C78.3143 34.4676 78.2949 34.4284 78.2909 34.4036C78.287 34.3789 78.2967 34.3521 78.3125 34.3444C78.3284 34.3367 78.3573 34.3262 78.3767 34.3213C78.3961 34.3163 78.5252 34.3034 78.6634 34.2923C78.8016 34.2813 79.0573 34.2634 79.2314 34.2525C79.4056 34.2417 79.7698 34.2325 80.0407 34.2325C80.3116 34.2325 80.7165 34.2415 80.9405 34.2525C81.1644 34.2634 81.4696 34.2836 81.6189 34.2975C81.7682 34.3112 81.9332 34.3314 81.986 34.3423C82.0385 34.3531 82.0949 34.3733 82.1116 34.3872C82.1282 34.4011 82.1346 34.4276 82.1264 34.4468ZM89.0257 31.7086C88.8218 31.5691 88.6885 31.7361 88.6885 31.7361C88.482 31.9632 88.1653 32.5276 88.1653 32.5276C88.0481 32.6985 88.0318 33.0577 88.0318 33.0577C87.996 34.1355 87.7511 39.5069 83.2249 41.0291C83.2249 41.0291 82.7872 41.1887 82.5122 40.8601C82.3716 40.6976 82.1868 40.6445 82.1868 40.6445C82.148 40.7742 82.1433 41.3473 82.1433 41.3473C82.1433 41.9263 81.8583 42.2415 81.8583 42.2415C81.0646 43.0328 80.9512 43.9525 80.9512 43.9525C80.9512 43.9525 80.9223 44.3232 80.5716 44.1295C80.5716 44.1295 80.0716 43.8746 79.5177 43.2544C79.5177 43.2544 78.2288 41.8806 78.2288 40.6671C78.2288 40.0419 78.5565 39.1102 78.5565 39.1102C78.7761 38.4716 78.663 37.6464 78.663 37.6464C78.663 37.6464 78.5565 37.1807 78.7761 37.1807C78.7761 37.1807 78.9207 37.151 79.0888 37.4866C79.1745 37.6738 79.3149 37.8526 79.3149 37.8526C79.3149 37.8526 79.5745 38.2318 79.5745 37.327C79.5745 36.5508 79.1553 36.4755 79.1553 36.4755C79.1553 36.4755 78.568 36.3342 78.5834 36.13C78.5834 36.13 78.5092 35.7371 79.7282 35.7371H79.8365C79.8365 35.7371 80.3912 35.7646 80.8876 35.7646C80.8876 35.7646 81.8803 35.8108 82.8791 35.4644C82.8791 35.4644 83.2278 35.3318 83.4754 35.3225C83.4754 35.3225 84.2427 35.2977 84.2861 36.0805C84.2861 36.0805 84.3076 36.3249 84.3108 36.4643V36.5161C84.3108 36.5161 84.2892 37.4514 84.5766 37.4514C84.9482 37.4514 85.038 36.6708 85.038 36.6708C85.038 36.6708 85.1853 35.7248 85.533 35.304C85.533 35.304 86.2338 34.6153 86.2338 33.3929V32.9107C86.2338 32.9107 86.2221 32.5452 86.1225 32.2575C86.0594 32.0141 85.8063 31.8981 85.8063 31.8981C85.6356 31.8175 85.2522 31.6238 85.0974 31.4398C85.0974 31.4398 84.3177 30.5747 84.0162 30.0535C84.0162 30.0535 83.5902 29.3527 82.6383 29.0856C82.6383 29.0856 82.0627 28.9339 82.3371 29.5931C82.3371 29.5931 82.5948 30.1697 82.1064 30.4632C82.1064 30.4632 81.3128 31.0299 80.3712 31.0299C79.189 31.0299 78.5545 30.1228 78.5545 30.1228C78.5545 30.1228 78.0604 29.4965 78.4858 28.5576C78.4858 28.5576 78.9458 27.5845 78.9987 27.1457C78.9987 27.1457 79.1096 26.297 79.2209 25.7445C79.2209 25.7445 79.2983 25.1109 79.7654 25.1101C80.4029 25.1091 80.4316 25.5172 80.4316 25.5172C80.4316 25.5172 80.5698 26.3342 80.9551 26.7174C80.9551 26.7174 81.0805 26.8416 81.2619 26.8443C81.2619 26.8443 81.4425 26.8479 81.6161 26.6699C81.6161 26.6699 81.851 26.4673 81.7217 26.2257C81.7217 26.2257 81.529 25.8639 81.6435 25.8051C81.6435 25.8051 81.727 25.7618 81.8841 25.8538C81.8841 25.8538 82.6599 26.2729 83.6734 26.2729C83.6734 26.2729 84.1589 26.2879 84.8799 26.1146C84.8799 26.1146 85.5637 25.9693 85.7092 26.4178C85.7092 26.4178 85.8237 26.7736 86.2415 26.7891C86.2415 26.7891 86.8108 26.7859 86.817 27.0489C86.8299 27.5964 86.2756 27.9028 86.2756 27.9028C86.2756 27.9028 86.0992 28.0699 85.2237 28.2956C85.2237 28.2956 84.9174 28.3699 84.9235 28.5741C84.9235 28.5741 84.9112 28.9501 85.3784 28.9485C86.2572 28.9454 86.7522 28.5277 86.7522 28.5277C86.7522 28.5277 87.532 28.0699 87.9132 26.0732L88.0839 25.2764C88.0839 25.2764 88.1408 24.8021 88.5677 24.6788L89.1083 24.5269C89.1083 24.5269 89.4717 24.434 89.4687 24.84C89.4687 24.84 89.5065 25.9214 89.4497 26.6897C89.4497 26.6897 89.3818 27.2838 89.7059 27.0786C89.7059 27.0786 90.3414 26.7182 90.2845 26.2154C90.2845 26.2154 90.2277 25.9214 90.2277 25.7031C90.2277 25.7031 90.2049 24.8857 90.7968 24.9063C90.7968 24.9063 91.6343 24.8487 91.2806 26.282C91.2806 26.282 90.781 28.4873 90.1958 30.5042C90.1958 30.5042 89.7746 32.1757 89.0257 31.7086ZM88.9887 23.893C88.9887 24.0075 88.7257 24.0437 88.7257 24.0437C88.6081 24.0499 88.4071 24.1217 88.4071 24.1217C88.4071 24.1217 88.3637 24.136 88.302 24.1344C88.1429 24.1301 88.0142 24.0108 88.0142 23.8681V23.8588C88.0142 23.716 88.1429 23.6039 88.302 23.6083C88.3637 23.6099 88.4071 23.6265 88.4071 23.6265C88.4071 23.6265 88.6083 23.7095 88.7257 23.7217C88.7257 23.7217 88.9887 23.7722 88.9887 23.8867V23.893ZM90.2883 21.696C90.2883 21.696 90.2327 22.1348 90.0764 22.1348C89.9432 22.1348 89.8921 21.8958 89.8921 21.8958C89.1354 18.945 88.1952 17.4535 88.1952 17.4535C87.8742 16.9432 87.8819 17.6401 87.8819 17.6401L87.8604 19.5395C87.8604 19.5395 89.1465 21.15 89.1465 22.955L89.1443 23.0134C89.1438 23.0788 89.1377 23.1441 89.1261 23.2085C89.1115 23.2796 89.0136 23.2496 89.0136 23.2496C88.9186 23.2334 88.8216 23.2201 88.8216 23.2201C86.6136 22.8774 83.3294 23.1005 83.3294 23.1005C81.99 23.1255 80.8825 24.1392 80.8825 24.1392C80.6565 24.3508 80.3524 24.257 80.3524 24.257C80.3524 24.257 80.0432 24.1786 79.8617 24.1786C79.6409 24.1786 79.3906 24.2522 79.3906 24.2522C79.2236 24.3061 79.089 24.3109 79.089 24.3109C78.845 24.3109 78.37 23.8871 78.37 23.8871C77.4107 23.0762 76.3028 23.1168 76.3028 23.1168L71.4237 23.0782C71.4237 23.0782 71.338 21.8574 72.1297 21.6146C72.1297 21.6146 72.6287 21.4599 72.6972 20.9987C72.6972 20.9987 72.8099 20.1379 73.2851 18.6102C73.2851 18.6102 74.1582 15.0664 77.2141 15.0664C78.5711 15.0664 79.705 15.67 79.705 15.67C79.705 15.67 80.0242 15.8609 80.2306 15.6814L80.805 15.1585C80.9815 14.9903 80.8082 14.8232 80.8082 14.8232C80.8082 14.8232 78.7949 12.4301 76.2701 12.4301L76.2042 12.4137C74.3725 12.4137 72.4275 13.2537 72.4275 13.2537C72.7802 12.2244 75.42 11.1951 75.42 11.1951C76.6113 10.7186 75.401 10.6614 75.401 10.6614C74.4315 10.6075 75.1723 10.242 75.1723 10.242C75.1723 10.242 76.9426 9.29464 79.7933 9.29464C84.2241 9.29464 87.4667 12.2897 87.4667 12.2897C91.4022 15.681 90.2883 21.696 90.2883 21.696Z" fill="#19191C"/>
</g>
<defs>
<clipPath id="clip0_0_882">
<rect width="69.888" height="70" fill="white" transform="translate(45 5)"/>
</clipPath>
</defs>
</svg>
