<svg width="160" height="79" viewBox="0 0 160 79" fill="none" xmlns="http://www.w3.org/2000/svg">
<g clip-path="url(#clip0_0_936)">
<path d="M114.636 40C114.636 59.328 99.0478 74.9966 79.8186 74.9966C60.589 74.9966 45.0006 59.328 45.0006 40C45.0006 20.6721 60.5892 5.00342 79.8186 5.00342C99.0478 5.00342 114.636 20.6721 114.636 40Z" fill="white"/>
<path d="M79.5276 17.4452C80.7533 18.1517 82.0537 19.0609 83.0432 20.0246L82.6546 20.4151C80.7014 20.2075 78.6444 20.4668 76.7928 20.4954C76.5865 20.2871 76.1705 19.9738 76.5577 19.7121L79.5276 17.4452ZM114.061 41.7059C114.087 42.5873 114.17 43.3443 113.826 44.2467C110.258 45.2618 107.914 41.484 104.452 42.0535L104.844 44.0117C108.047 44.117 110.047 47.1886 113.356 47.0565C112.886 47.9952 113.566 50.4691 111.483 49.4803C109.321 48.9606 107.758 47.0565 105.389 47.0565C105.103 47.5811 105.285 48.3077 105.234 48.9288C107.734 49.3207 109.531 51.4331 112.029 51.8231C111.794 52.6817 111.562 53.6431 110.857 54.1666C108.825 53.6719 107.237 51.8465 105.073 51.8987L104.688 53.6968C106.744 53.7497 108.073 55.569 109.921 56.1154C109.972 56.8736 109.294 57.5515 108.903 58.2283C107.263 57.7358 106.012 56.3261 104.137 56.4302C104.111 55.7238 104.53 54.922 104.372 54.1666C102.267 54.793 100.855 52.8367 99.2945 51.663C99.2498 47.8229 95.2071 45.3034 94.9936 41.7061C94.9524 40.9886 95.0617 40.2232 95.3887 39.4001C96.7174 36.3281 96.3 32.3395 94.8433 29.4751C94.4001 28.7211 93.6162 28.1263 92.8851 27.6829C93.9544 29.9499 95.2581 32.6281 94.6073 35.4142C94.5319 37.5655 93.2622 39.6321 93.2479 41.7061C93.243 42.4456 93.401 43.1851 93.8264 43.9319C95.5198 46.9823 98.5672 49.8703 97.4213 53.6963C97.1062 54.8714 96.1685 55.7799 95.9339 56.9759C97.9155 58.6171 99.7892 60.4667 102.418 60.5706C103.355 59.9723 102.835 57.3188 104.762 58.5429L107.576 59.9505C107.371 60.7036 106.74 61.3787 106.169 61.8974C105.102 61.378 104.06 60.7548 102.729 60.8056C102.337 61.2223 101.999 61.6898 102.028 62.2874C102.965 62.4417 103.825 62.8368 104.607 63.3848C104.244 64.1674 103.536 64.6576 102.885 65.2571L100.702 64.4767C100.337 64.9982 99.5803 65.546 99.846 66.1186C100.339 66.3292 100.885 66.6144 101.247 66.9798C100.284 68.0213 99.0628 68.6915 97.8876 69.3982C96.8754 66.0898 93.5401 63.7704 93.8266 59.9444L93.6717 59.7894C92.8879 60.671 93.1496 62.0802 93.2002 63.2243C94.1384 65.6204 96.3763 67.4714 96.7158 70.0993C96.3239 70.7758 95.4407 70.9106 94.7625 71.1967C94.8416 66.4589 87.6543 62.8654 92.2634 58.0728C93.8004 55.7261 96.3759 53.4865 95.4634 50.2556C94.5266 47.1359 91.2128 45.203 91.242 41.7061L91.2474 41.4332C92.0019 37.7865 94.2948 33.906 92.4193 30.0264C91.8963 28.466 90.7284 26.6927 89.1401 26.0405C91.5084 28.7511 92.4471 33.174 91.0924 36.8216C90.4094 38.2727 89.4693 40.001 89.3751 41.7066H89.3693C89.319 42.5973 89.5006 43.4834 90.0758 44.323C91.8736 47.241 94.9971 50.4457 93.2004 54.248C91.1695 57.2936 87.6279 60.3915 89.606 64.4031C91.0379 66.7986 93.2536 69.1891 92.6555 72.1342L90.3122 72.9149C91.8745 67.4218 84.2172 64.1941 87.4231 58.6988C89.4018 55.7565 92.9415 52.9954 90.9377 49.0901C89.7399 46.6703 87.265 45.2381 87.3428 42.2144L87.4282 41.7064C88.2347 37.4178 91.4951 33.358 89.215 28.7752C88.616 27.4217 87.4191 26.0422 86.0904 25.2603L86.0103 25.3404C88.6677 27.9184 89.476 32.1604 88.0432 35.5701C87.3748 37.5707 85.9076 39.5635 85.6096 41.7071C85.4675 42.7181 85.5871 43.7657 86.1709 44.8692C87.8634 47.5493 90.8317 50.3923 88.9795 53.8573C87.0291 56.7191 83.7729 59.5041 85.0735 63.2259C86.5064 66.4821 89.4973 69.5843 87.8826 73.6217L85.464 74.1678C87.3903 70.2332 84.5021 66.3285 82.8098 62.9162C80.7515 58.0199 87.232 55.6755 87.3362 51.1995C87.3116 48.3101 84.2399 46.6696 83.5912 44.0138C82.2616 42.8921 80.8837 44.4595 79.2945 44.1686C78.1215 44.4043 76.3194 42.5536 75.619 44.56C74.7852 47.5011 70.9852 49.6631 72.655 53.1518C74.2442 56.2519 78.0683 58.5186 76.7909 62.5307C75.6471 66.2777 71.8686 69.8458 74.2121 74.1678C73.2493 73.856 71.452 74.4531 71.4779 72.9152C69.9943 67.6814 76.3213 64.6318 74.3671 59.4006C73.4577 56.1964 69.314 54.4264 70.2263 50.5723C70.9007 47.3999 74.4605 45.1822 73.9612 41.7071C73.9168 41.4016 73.845 41.1008 73.7468 40.8082C72.4181 37.0583 69.7073 33.3072 71.323 28.9306C71.7666 27.6808 72.6526 26.6134 73.4312 25.496C70.8529 26.8755 69.5523 29.793 69.6057 32.7611C69.4933 35.9887 71.8775 38.7536 72.2167 41.7071C72.3502 42.8991 72.1549 44.1199 71.323 45.4146C69.6317 47.7094 67.4197 50.1292 68.4338 53.1511C69.3981 56.1992 73.1997 58.0459 72.9656 61.5887C72.9396 65.7798 68.0698 68.389 69.45 73.0762L67.0262 72.2899C66.0639 68.1247 70.4901 65.994 70.5409 62.1402C71.1673 57.7088 65.5152 56.0646 65.8544 51.7444C65.83 48.4622 68.7192 46.3835 69.9952 43.6226C70.2139 42.9508 70.2869 42.3162 70.2576 41.7073C70.1013 38.6548 67.3507 36.2684 67.8072 32.8362C67.9607 30.3104 68.8201 28.0961 70.4613 26.1967C68.1969 27.1061 67.2615 29.7127 66.636 31.9005C65.5505 35.4089 68.1417 38.5644 68.4013 41.7073C68.5165 43.0955 68.1775 44.4754 66.8715 45.8863C64.9955 48.0968 63.093 50.8865 64.4475 53.8578C65.8818 57.1363 70.3878 59.6881 68.4334 63.7769C67.3671 66.3557 64.8138 68.3073 64.9187 71.3533C64.2422 71.0668 63.5404 70.7812 62.9655 70.2615C62.9655 66.3824 68.4839 63.9593 65.8546 59.8709C65.6217 60.6774 65.5716 61.7738 65.3892 62.6851C64.4768 65.056 62.5244 66.9536 61.7938 69.4047C60.5721 68.9333 59.2947 67.9426 58.2785 66.9009L59.6861 66.0397C59.5297 65.5177 59.1137 65.0755 58.7497 64.6328C57.8358 64.5045 57.2356 65.1043 56.4818 65.3393C55.8308 64.7651 55.2025 64.2442 54.6836 63.541C55.1508 62.2104 58.8017 63.3106 56.9521 61.1226C55.7035 60.3421 54.4502 61.4573 53.3567 61.978L51.8745 60.1057C53.1505 59.3252 54.4232 58.2288 56.0104 58.5434C56.4015 59.2478 56.4287 60.2834 57.1822 60.6511C59.8649 60.5992 61.7657 58.5698 63.8222 56.9808C62.3889 54.8483 61.2222 51.9038 62.4954 49.3244C63.5153 46.74 66.1737 44.563 66.294 41.7057C66.3214 41.0556 66.22 40.3714 65.9356 39.6349C64.5301 36.0147 64.0341 31.1217 66.7168 27.9175C65.2582 28.3094 64.3981 30.1275 63.9025 31.5077C62.2899 35.0427 64.3295 38.3179 64.4 41.7054C64.4096 42.315 64.3602 42.9255 64.2125 43.5407C62.8318 46.3269 60.5948 48.7715 60.2315 51.9776C58.6425 52.9912 57.3379 54.7637 55.0738 54.1656C54.9942 54.764 55.1765 55.676 55.3842 56.3539C53.5887 56.2783 52.3644 57.6019 50.8529 58.2266C50.0474 57.9682 49.8379 56.9272 49.5261 56.199C51.2956 55.6013 52.5721 53.8274 54.6037 53.8552C54.8392 53.201 54.4717 52.6014 54.368 51.9771C51.8408 50.8556 47.8348 57.5223 47.4979 51.7421C50.0233 51.586 51.6369 49.2415 54.1381 49.0079L54.2128 47.1357C51.3744 46.8491 49.5485 49.7668 46.7113 49.4794L46.0856 46.9807C49.3676 47.1857 51.3229 44.2446 54.4485 44.0864C54.8638 43.5402 54.9139 42.7331 54.994 41.9786C51.5823 41.5338 49.2414 45.3149 45.6203 44.1667C45.6203 44.1667 45.4955 42.5931 45.4278 41.7057H45.4327C45.419 41.5093 45.403 41.3131 45.3848 41.1172C48.6136 42.3698 51.4505 40.0506 54.2128 38.8537C54.9153 38.6435 56.0109 39.008 56.3257 38.2273C56.2988 37.6283 57.391 36.9279 56.4816 36.51C52.4433 35.9618 49.7606 40.8328 45.6198 38.618L45.3091 37.9916C46.1699 26.2222 52.8073 14.844 63.8218 9.24474C68.2824 6.69548 73.8242 5.39628 79.4132 5.34993C86.1578 5.29375 92.9736 7.06325 98.0435 10.6521C102.967 13.6719 107.676 18.6489 110.232 23.7013C112.676 28.1282 113.801 33.0953 114.137 38.3832C109.866 41.6109 107 35.3426 102.65 36.7455C102.884 37.4237 103.014 38.1257 103.511 38.6985C107.367 38.6712 110.021 42.7081 114.057 41.1169L114.061 41.7059ZM64.9929 27.2112C62.284 25.4401 58.8499 27.108 56.3255 28.0727C56.0911 25.7018 55.1283 23.5418 53.1208 21.9795C52.926 21.8824 52.6568 21.6787 52.4143 21.6635C52.2691 21.6544 52.131 21.7131 52.0238 21.8985C52.9337 27.4966 49.2948 31.4026 46.716 35.649C47.5747 36.3506 48.9542 36.246 49.9956 36.0395C52.7294 34.9465 55.3334 33.0436 58.5884 33.6958C59.5512 32.0553 61.1683 30.4663 62.4945 29.1645C63.3049 28.4631 64.4178 28.0181 64.9929 27.2112ZM73.2753 30.7268C73.2231 31.0639 73.3013 31.665 73.821 31.4326C74.6295 30.3129 76.061 31.199 76.9458 31.2776V30.9625C76.4603 30.2001 75.4617 29.8174 74.4472 29.8553C74.2131 29.8637 73.9752 29.8976 73.7463 29.951C73.4071 30.0264 73.1707 30.3368 73.2753 30.7268ZM86.0092 27.3723C85.2818 25.7573 83.6151 25.1037 82.1031 24.713C81.3615 24.6217 80.5921 24.5601 79.8289 24.5527C79.6859 24.5512 79.5431 24.5494 79.4005 24.5527C77.2661 24.5957 75.2264 25.1437 73.9804 26.9008C73.8015 27.3969 73.0152 28.0935 73.7454 28.5381C75.3861 28.4334 77.2584 28.2277 78.352 29.6355C78.352 30.8869 79.1601 32.5513 77.8064 33.1504C76.6848 32.1119 75.3566 33.5925 74.1363 32.7592C73.5625 32.42 73.1995 32.8156 72.9644 33.3105C72.6252 36.5386 74.3158 40.1017 77.3358 41.8979C78.5599 42.3394 80.2053 42.7591 81.4828 42.1329C84.5552 40.7021 85.828 37.423 86.4006 34.4018C86.3238 33.8269 86.3507 32.7065 85.5442 32.6791C84.6334 33.2555 83.3049 32.9149 82.3398 32.6791C81.7688 32.8634 81.7426 33.6986 81.093 33.8568L80.6972 33.541C80.358 32.1107 80.1489 30.0791 81.4786 29.0893C82.9641 28.4903 84.7088 28.2288 86.2449 28.6989C86.5316 28.204 86.0892 27.8147 86.0092 27.3723ZM84.4414 29.9398C84.3382 29.9426 84.238 29.9477 84.136 29.951C83.5905 30.315 82.0003 30.0533 82.5746 31.2776C83.5645 30.4946 84.9447 31.0433 85.9342 31.4326C86.2999 31.2512 86.221 30.8865 86.2446 30.5718C85.9268 29.9808 85.1678 29.9255 84.4414 29.9398ZM95.7792 18.9293C93.8517 18.827 92.2376 19.9214 90.4665 20.4163C90.3124 18.9092 91.4571 17.3176 91.7184 15.8047C88.855 15.9889 86.5867 17.7128 84.2174 19.0897C83.6675 17.762 83.1201 16.4333 82.575 15.1036L85.7002 12.1344L85.7802 11.743L81.5588 11.5079C80.832 10.234 80.5452 8.69953 79.6861 7.52767C78.9829 8.85591 78.5105 10.2614 77.808 11.588L73.592 11.8237V12.1344L76.7918 15.0235C76.4007 16.5086 76.0371 18.1222 75.0743 19.2444C73.1997 18.1215 71.3513 16.8995 69.296 16.1195C68.8014 15.9601 68.0963 15.7005 67.6536 16.0395C68.3037 17.4723 69.2141 19.0134 69.061 20.5771C68.2009 20.4188 67.5251 19.8675 66.7172 19.6358C65.7511 19.372 64.605 18.8572 63.6677 19.1704C65.2305 21.3564 66.5061 23.6446 66.9473 26.2756C72.1318 23.7731 78.1779 22.3969 84.4538 23.4665C87.3959 23.9344 90.1008 25.133 92.7315 26.1199C92.8343 23.3614 94.5785 21.1448 95.7792 18.9293ZM104.682 33.931C107.336 34.6333 109.999 37.5253 112.809 35.649C110.361 31.5873 106.718 27.8363 107.732 22.525C107.838 22.1624 107.603 21.7953 107.266 21.7438C105.678 22.3927 104.449 23.9571 103.82 25.4946C103.562 26.4043 103.409 27.3709 103.045 28.2284C101.143 27.2382 99.1131 26.2793 96.7956 26.5108C95.9594 26.615 94.7618 26.6698 94.6073 27.528C97.2371 28.9334 99.3999 31.2788 101.012 33.7768C102.135 33.594 103.511 33.7501 104.682 33.931ZM76.8709 37.6021L76.9458 38.0728C77.9634 38.7505 78.2764 39.8994 79.6854 39.7953C80.9345 39.8692 81.8718 38.6988 82.494 37.7619C80.8039 37.5283 78.7462 37.8895 76.8709 37.6021ZM78.2776 35.4941C78.3284 35.7024 78.1486 36.0149 78.4326 36.1205C79.2662 35.9395 80.7758 36.5639 81.2412 35.5741C80.916 35.2101 80.3858 35.0448 79.8289 35.0448C79.2725 35.0448 78.6952 35.2068 78.2776 35.4941Z" fill="#19191C"/>
<path opacity="0.99" d="M76.8728 34.5901H82.583V36.9359H76.8728V34.5901Z" fill="white"/>
<path d="M77.9274 35.8447C78.6652 36.0193 78.8478 36.2808 79.4307 36.3541C80.051 36.3431 79.9616 36.2171 81.0424 35.844C81.1138 35.819 81.2112 35.6621 81.0904 35.542C80.4188 34.8758 79.9546 35.3519 79.5342 35.3646C78.9754 35.3704 78.452 34.8866 77.9065 35.5158C77.8136 35.6434 77.7651 35.7691 77.9274 35.8447Z" fill="#19191C"/>
<path d="M104.904 74.3352V70.994H103.711V70.3137H106.907V70.994H105.716V74.3352H104.904ZM107.423 74.3352V70.3135H108.638L109.367 73.0568L110.089 70.3135H111.307V74.3352H110.552V71.1695L109.754 74.3352H108.972L108.177 71.1695V74.3352H107.423Z" fill="#19191C"/>
</g>
<defs>
<clipPath id="clip0_0_936">
<rect width="69.636" height="70" fill="white" transform="translate(45 5)"/>
</clipPath>
</defs>
</svg>
