<svg width="160" height="79" viewBox="0 0 160 79" fill="none" xmlns="http://www.w3.org/2000/svg">
<g clip-path="url(#clip0_0_928)">
<path fill-rule="evenodd" clip-rule="evenodd" d="M120.773 72.9383C120.413 55.421 117.591 38.5611 112.824 25.466C108.02 12.274 102.023 5.00781 95.9423 5.00781C92.1639 5.00781 88.6149 7.75663 85.3887 13.1829C83.3908 16.5484 81.5288 20.9673 79.9098 26.1676C78.2856 20.9673 76.427 16.5484 74.4257 13.1829C71.2029 7.75663 67.6522 5.00781 63.8739 5.00781C57.7884 5.00781 51.7947 12.274 46.9919 25.466C42.2265 38.5611 39.4029 55.421 39.0427 72.9366L38.9986 74.9923H51.2086L51.2323 73.008C51.7063 36.4103 60.4234 13.1982 63.9741 13.1982C66.3661 13.1982 72.4788 29.2715 73.4064 69.0665L73.454 71.0271H86.3622L86.4081 69.0665C87.334 29.2715 93.4483 13.1965 95.8404 13.1965C99.3928 13.1965 108.106 36.4086 108.582 73.0063L108.608 74.9923H120.812L120.773 72.9383Z" fill="#19191C"/>
<path fill-rule="evenodd" clip-rule="evenodd" d="M119.849 72.9604C119.492 55.5416 116.686 38.7955 111.954 25.7989C107.367 13.1846 101.53 5.95068 95.9423 5.95068C89.8263 5.95068 84.067 14.4486 79.9098 29.4278C75.7509 14.4503 69.9899 5.95238 63.8705 5.95238C58.2862 5.95238 52.4471 13.1863 47.8566 25.7972C43.1269 38.7938 40.3237 55.5416 39.9669 72.9604L39.9449 74.046H50.2963L50.3081 72.9961C50.7889 35.9074 59.5519 12.2519 63.9741 12.2519C67.7626 12.2519 73.4693 31.9863 74.3323 69.041L74.3595 70.0825H85.4584L85.4822 69.041C86.3452 31.988 92.0552 12.2519 95.8404 12.2519C100.264 12.2519 109.027 35.9074 109.506 72.9961L109.52 74.046H119.871L119.849 72.9604Z" fill="#19191C"/>
<path fill-rule="evenodd" clip-rule="evenodd" d="M63.7583 9.10889V11.2019C57.7221 11.8339 49.7084 38.8311 49.2684 72.9824L45.1622 68.7794V68.674C46.4669 35.1887 55.5934 9.37561 63.7583 9.10889Z" fill="#19191C"/>
<path fill-rule="evenodd" clip-rule="evenodd" d="M63.5477 7.03296H64.2493C70.3025 7.44069 76.0635 17.6987 79.8996 33.546V64.1704C78.4046 32.5385 71.7517 9.10392 63.8858 9.10392C62.2633 9.10392 60.6001 10.1233 58.9658 12.0158V9.06314C60.4948 7.81785 62.034 7.1213 63.5477 7.03296ZM98.6894 10.0417V12.9757C97.7143 11.8086 96.7527 11.1868 95.8404 11.1868C90.0132 11.1868 85.2002 36.3645 84.4408 69.019L79.9132 64.3827V64.3097C81.3912 32.6082 88.0526 9.10392 95.9304 9.10392C96.841 9.10392 97.7652 9.42671 98.6894 10.0417Z" fill="#19191C"/>
<path fill-rule="evenodd" clip-rule="evenodd" d="M118.794 72.4881V72.9689L114.678 68.759L114.661 68.776C113.461 37.6946 105.522 13.1999 97.862 9.56931V7.34375C107.671 10.5971 117.997 38.0955 118.792 72.4881H118.794Z" fill="#19191C"/>
</g>
<defs>
<clipPath id="clip0_0_928">
<rect width="81.8139" height="70" fill="white" transform="translate(39 5)"/>
</clipPath>
</defs>
</svg>
