<svg width="300" height="307" viewBox="0 0 300 307" fill="none" xmlns="http://www.w3.org/2000/svg">
<g opacity="0.2">
<path d="M150.415 249.96C155.89 266.761 167.191 281.051 182.278 290.252C197.364 299.452 215.242 302.957 232.686 300.134C250.13 297.311 265.99 288.346 277.404 274.857C288.818 261.367 295.035 244.242 294.932 226.572C294.829 208.901 288.414 191.85 276.843 178.494C265.273 165.139 249.309 156.359 231.834 153.739C214.359 151.119 196.522 154.832 181.544 164.207C166.566 173.583 155.432 188.004 150.152 204.867" stroke="url(#paint0_linear_0_1469)" stroke-width="2.21635" stroke-linecap="round"/>
<path d="M340.535 286.065C355.578 257.109 359.007 223.505 350.122 192.107C341.237 160.71 320.708 133.885 292.722 117.106C264.737 100.327 231.404 94.8569 199.523 101.813C167.643 108.768 139.618 127.626 121.165 154.537C102.712 181.448 95.2218 214.386 100.223 246.631C105.223 278.876 122.338 307.998 148.076 328.056C173.813 348.114 206.233 357.597 238.723 354.57C271.213 351.542 301.323 336.233 322.912 311.766" stroke="url(#paint1_linear_0_1469)" stroke-width="2.21635" stroke-linecap="round"/>
</g>
<defs>
<linearGradient id="paint0_linear_0_1469" x1="267.548" y1="169.491" x2="174.154" y2="284.515" gradientUnits="userSpaceOnUse">
<stop stop-color="white"/>
<stop offset="1" stop-color="white" stop-opacity="0"/>
</linearGradient>
<linearGradient id="paint1_linear_0_1469" x1="233.539" y1="110.743" x2="317.833" y2="314.793" gradientUnits="userSpaceOnUse">
<stop stop-color="white"/>
<stop offset="1" stop-color="white" stop-opacity="0"/>
</linearGradient>
</defs>
</svg>
