<svg width="418" height="632" viewBox="0 0 418 632" fill="none" xmlns="http://www.w3.org/2000/svg">
<g opacity="0.2">
<path d="M198.814 274.818C189.017 251.699 171.279 232.843 148.8 221.653C126.322 210.463 100.584 207.677 76.2317 213.797C51.8794 219.916 30.5165 234.539 15.9984 255.026C1.48025 275.513 -5.23684 300.514 -2.94069 325.519C-0.644534 350.523 10.5136 373.883 28.5201 391.383C46.5266 408.883 70.1953 419.371 95.2549 420.953C120.315 422.535 145.114 415.108 165.179 400.011C185.243 384.915 199.251 363.144 204.674 338.627" stroke="url(#paint0_linear_0_1472)" stroke-width="2.21635" stroke-linecap="round"/>
<path d="M-66.2675 246.108C-84.0411 288.933 -84.8059 336.926 -68.4059 380.295C-52.0059 423.665 -19.6768 459.143 21.986 479.493C63.6488 499.842 111.506 503.529 155.794 489.802C200.082 476.074 237.464 445.966 260.314 405.62C283.163 365.275 289.759 317.731 278.754 272.689C267.75 227.647 239.976 188.5 201.097 163.235C162.218 137.97 115.164 128.491 69.5354 136.731C23.9066 144.971 -16.8592 170.309 -44.4456 207.577" stroke="url(#paint1_linear_0_1472)" stroke-width="2.21635" stroke-linecap="round"/>
</g>
<defs>
<linearGradient id="paint0_linear_0_1472" x1="42.7763" y1="402.999" x2="161" y2="228.786" gradientUnits="userSpaceOnUse">
<stop stop-color="white"/>
<stop offset="1" stop-color="white" stop-opacity="0"/>
</linearGradient>
<linearGradient id="paint1_linear_0_1472" x1="106.55" y1="481.299" x2="-37.6243" y2="202.673" gradientUnits="userSpaceOnUse">
<stop stop-color="white"/>
<stop offset="1" stop-color="white" stop-opacity="0"/>
</linearGradient>
</defs>
</svg>
